<?xml version="1.0" encoding="utf-8"?>
<!-- Generator: Adobe Illustrator 26.3.1, SVG Export Plug-In . SVG Version: 6.00 Build 0)  -->
<svg version="1.1" id="Layer_1" xmlns="http://www.w3.org/2000/svg" xmlns:xlink="http://www.w3.org/1999/xlink" x="0px" y="0px"
	 viewBox="0 0 109 152" style="enable-background:new 0 0 109 152;" xml:space="preserve">
<style type="text/css">
	.st0{enable-background:new    ;}
	.st1{fill:#050505;}
</style>
<g id="_01" transform="translate(0 114)">
	<g class="st0">
		<path class="st1" d="M34.9-78.3c22.2,0,28.3,17.4,28.3,40.1c0,23.1-6.1,40.5-28.3,40.5C12.6,2.4,6.5-15.1,6.5-38.2
			C6.5-60.8,12.6-78.3,34.9-78.3z M34.9-66.9c-14.5,0-16.1,14-16.1,28.8C18.7-22.6,20.4-9,34.9-9S51-22.6,51-38.2
			C51-53,49.4-66.9,34.9-66.9z"/>
		<path class="st1" d="M84.9-65.5H74.8v-11.3h22.7V2.6H84.9V-65.5z"/>
	</g>
</g>
</svg>
