<?xml version="1.0" encoding="utf-8"?>
<!-- Generator: Adobe Illustrator 26.3.1, SVG Export Plug-In . SVG Version: 6.00 Build 0)  -->
<svg version="1.1" id="Layer_1" xmlns="http://www.w3.org/2000/svg" xmlns:xlink="http://www.w3.org/1999/xlink" x="0px" y="0px"
	 viewBox="0 0 140.3 152" style="enable-background:new 0 0 140.3 152;" xml:space="preserve">
<style type="text/css">
	.st0{enable-background:new    ;}
	.st1{fill:#050505;}
</style>
<g id="_01" transform="translate(0 114)">
	<g class="st0">
		<path class="st1" d="M34.9-83.9c22.2,0,28.3,17.4,28.3,40.1c0,23.1-6.1,40.5-28.3,40.5S6.5-20.7,6.5-43.8
			C6.5-66.4,12.6-83.9,34.9-83.9z M34.9-72.5c-14.5,0-16.1,14-16.1,28.8c0,15.6,1.6,29.2,16.1,29.2S51-28.2,51-43.8
			C51-58.6,49.4-72.5,34.9-72.5z"/>
		<path class="st1" d="M75.4-13.1c18.7-16.5,38.5-30.8,38.5-46.4c0-8.3-3.6-14-12.9-14c-8.7,0-13.4,6.1-13.7,15h-12
			c0.4-17.2,11.6-25.6,25.6-25.6c16.1,0,25.3,9.7,25.3,24c0,19.3-19.6,34-32.4,45.7h34.6v10.4h-53V-13.1z"/>
	</g>
</g>
</svg>
