<?xml version="1.0" encoding="utf-8"?>
<!-- Generator: Adobe Illustrator 26.3.1, SVG Export Plug-In . SVG Version: 6.00 Build 0)  -->
<svg version="1.1" id="Layer_1" xmlns="http://www.w3.org/2000/svg" xmlns:xlink="http://www.w3.org/1999/xlink" x="0px" y="0px"
	 viewBox="0 0 135 152" style="enable-background:new 0 0 135 152;" xml:space="preserve">
<style type="text/css">
	.st0{enable-background:new    ;}
	.st1{fill:#050505;}
</style>
<g id="_01" transform="translate(0 114)">
	<g class="st0">
		<path class="st1" d="M34.9-76.4c22.2,0,28.3,17.4,28.3,40.1c0,23.1-6.1,40.5-28.3,40.5S6.5-13.2,6.5-36.3
			C6.5-59,12.6-76.4,34.9-76.4z M34.9-65.1c-14.5,0-16.1,14-16.1,28.8c0,15.6,1.6,29.2,16.1,29.2S51-20.7,51-36.3
			C51-51.2,49.4-65.1,34.9-65.1z"/>
		<path class="st1" d="M102.2-76.9c15.8,0,24.4,9.2,24.4,20.7c0,9.5-6,15.9-12.2,18v0.4c8.3,2.5,13.6,9.4,13.6,20.4
			c0,12.6-8.9,22.2-25.5,22.2c-15,0-26.7-7.8-27.5-23.4h12c0.5,7.4,6,13.1,15.4,13.1c9.3,0,13.8-5.7,13.8-13.1
			c0-10.5-6.8-14.1-19.7-14.1h-2.8v-10.2h2.9c11.2-0.1,18.1-3.4,18.1-11.9c0-6.9-4.5-11.4-13-11.4c-8.7,0-12.8,5.2-13.5,10.8H76.2
			C77.1-69.1,87.7-76.9,102.2-76.9z"/>
	</g>
</g>
</svg>
