<?xml version="1.0" encoding="utf-8"?>
<!-- Generator: Adobe Illustrator 26.3.1, SVG Export Plug-In . SVG Version: 6.00 Build 0)  -->
<svg version="1.1" id="Layer_1" xmlns="http://www.w3.org/2000/svg" xmlns:xlink="http://www.w3.org/1999/xlink" x="0px" y="0px"
	 viewBox="0 0 143.9 152" style="enable-background:new 0 0 143.9 152;" xml:space="preserve">
<style type="text/css">
	.st0{enable-background:new    ;}
	.st1{fill:#050505;}
</style>
<g id="_01" transform="translate(0 114)">
	<g class="st0">
		<path class="st1" d="M34.9-79.9c22.2,0,28.3,17.4,28.3,40.1c0,23.1-6.1,40.5-28.3,40.5S6.5-16.7,6.5-39.8
			C6.5-62.4,12.6-79.9,34.9-79.9z M34.9-68.5c-14.5,0-16.1,14-16.1,28.8c0,15.6,1.6,29.2,16.1,29.2S51-24.2,51-39.8
			C51-54.6,49.4-68.5,34.9-68.5z"/>
		<path class="st1" d="M114.3-15.6H74.9v-9.4l36.6-52.5h15v51.1h10.1v10.8h-10.1V1h-12.2V-15.6z M114.9-26.4v-38.5L89.2-26.4H114.9z
			"/>
	</g>
</g>
</svg>
