<svg xmlns="http://www.w3.org/2000/svg" width="251.515" height="88.69" viewBox="0 0 251.515 88.69">
  <g id="Delmon_Poultry_Logo" data-name="Delmon Poultry Logo" transform="translate(-56 -249.17)">
    <g id="Group_48700" data-name="Group 48700" transform="translate(56 249.17)">
      <path id="Path_23343" data-name="Path 23343" d="M173.266,258.74a6.6,6.6,0,0,0-3.958-3.621,6.516,6.516,0,0,0-5.3.674c-.842.547-1.558,1.263-2.442,1.768a6.029,6.029,0,0,1-6.82-.926c-3.116-2.652-.842-6.863-.842-6.863a3.541,3.541,0,0,0,1.937,2.274c4.21,1.642,5.978-1.137,7.747-2.147a4.444,4.444,0,0,1,5.557.505,5.059,5.059,0,0,1,4.715,2.273C174.824,254.361,174.361,257.182,173.266,258.74Z" transform="translate(-111.478 -249.17)" fill="#e31d1a"/>
      <path id="Path_23344" data-name="Path 23344" d="M193.444,289.3a3.348,3.348,0,0,0,.758,3.41c.8.926,1.81,1.642,2.695,2.484a3.96,3.96,0,0,1,1.431,3.242,2.97,2.97,0,0,1-2.273,2.4,4.124,4.124,0,0,1-3.326-.8,6.516,6.516,0,0,1-1.979-2.863,7.568,7.568,0,0,1-.253-4.421A5.043,5.043,0,0,1,193.444,289.3Z" transform="translate(-134.484 -272.405)" fill="#e31d1a"/>
      <path id="Path_23345" data-name="Path 23345" d="M188.04,272.036a1.055,1.055,0,0,1,1.853,1.01,1.052,1.052,0,0,1-1.431.421A1.067,1.067,0,0,1,188.04,272.036Z" transform="translate(-132.382 -262.087)" fill="#e31d1a"/>
      <path id="Path_23346" data-name="Path 23346" d="M103.491,286s-1.768,1.389-.674,6.61c0,0,4.547,15.072.589,23.745,0,0-1.474,4.589-6.021,4.463,0,0-4,.505-10.989-5.221-5.936-4.842-17.683-11.7-30.4,4.252,0,0,4.168-.926,7.7,4.715,0,0,4.758,9.515,5.978,12.21s7.7,16.63,22.272,21.009A31.374,31.374,0,0,0,128.5,343.427c7.326-12.546,3.41-28.208-7.241-39.7,0,0,12.757,14.357,2.484,26.692,0,0,4.673-11.073-7.747-23.872C107.238,297.7,102.775,288.147,103.491,286Z" transform="translate(-56 -270.494)" fill="#e31d1a"/>
      <path id="Path_23347" data-name="Path 23347" d="M204.51,279.647a1509.4,1509.4,0,0,0-.758-.421c-.253-.126-.463-.295-.674-.379a6.344,6.344,0,0,1-.716-.337s.337,0,.8.042a7.6,7.6,0,0,1,.8.211,1.759,1.759,0,0,1,.421.168,1.967,1.967,0,0,0,.421.211c.253.168.505.379.758.547.042.042.126.084.168.168.463.042.8.084.8.084-.758-2.947-5.052-3.242-5.052-3.242l.589,1.305-1.768.8c1.095.211.842,1.095.842,1.095a15.751,15.751,0,0,1,3.663-.126C204.721,279.773,204.636,279.689,204.51,279.647Z" transform="translate(-139.547 -265.109)" fill="#e31d1a"/>
      <g id="Group_48698" data-name="Group 48698" transform="translate(106.18 45.988)">
        <path id="Path_23348" data-name="Path 23348" d="M624.289,380.431a.915.915,0,0,1,.589-.589.909.909,0,0,0,1.011.926,1.065,1.065,0,0,0,1.052-.884,10.578,10.578,0,0,0,.126-2.4h1.81v2.737a.98.98,0,0,1,.463-.379,1.084,1.084,0,0,0,1.137,1.01,1.016,1.016,0,0,0,1.01-.968,20.176,20.176,0,0,0,.126-2.905h1.81V379.8a2.64,2.64,0,0,1-.632,1.895,2.387,2.387,0,0,1-2.021.716c-.884-.042-1.979-.547-2.105-1.347a2.071,2.071,0,0,1-.421.632,2.265,2.265,0,0,1-1.979.716,2.782,2.782,0,0,1-2.526-2.105m.463.758a2.077,2.077,0,0,1-.421.632,2.509,2.509,0,0,1-1.979.758h-2.821l-.084-1.642h2.484a1.108,1.108,0,0,0,1.095-.884,7.6,7.6,0,0,0,.126-2.063h1.811v2.4m7.2-2.189v-1.6c0-.968.758-1.474,1.81-1.474v3.284" transform="translate(-488.09 -368.011)" fill="#f7f7f7"/>
        <g id="Group_48685" data-name="Group 48685" transform="translate(117.511 8.715)">
          <path id="Path_23349" data-name="Path 23349" d="M591.939,383.847V380.9h1.81v4.126a3.3,3.3,0,0,1-3.663,3.579c-1.81,0-3.2-.968-2.653-2.863a2.815,2.815,0,0,0,2.442,1.221,1.852,1.852,0,0,0,2.063-2.021Z" transform="translate(-587.313 -380.142)" fill="#f7f7f7"/>
          <path id="Path_23350" data-name="Path 23350" d="M598.3,382.173V379.1h1.768a15.113,15.113,0,0,0,.126,3.158,1.108,1.108,0,0,0,1.095.884h5.894v1.642H600.91a2.622,2.622,0,0,1-1.979-.758A2.464,2.464,0,0,1,598.3,382.173Z" transform="translate(-593.674 -379.1)" fill="#f7f7f7"/>
        </g>
        <g id="Group_48686" data-name="Group 48686" transform="translate(138.434)">
          <path id="Path_23351" data-name="Path 23351" d="M646.583,365.337a1.176,1.176,0,0,1,.337.842,1.253,1.253,0,0,1-.337.842c-.505.505-1.516.337-1.726.968-.168-.589-.505-2.021.084-2.652a1.176,1.176,0,0,1,.842-.337A1.078,1.078,0,0,1,646.583,365.337Z" transform="translate(-641.408 -362.221)" fill="#f7f7f7"/>
          <path id="Path_23352" data-name="Path 23352" d="M638.983,365.337a1.176,1.176,0,0,1,.337.842,1.252,1.252,0,0,1-.337.842c-.505.505-1.516.337-1.726.968-.169-.589-.505-2.021.084-2.652a1.177,1.177,0,0,1,.842-.337A1.151,1.151,0,0,1,638.983,365.337Z" transform="translate(-637.008 -362.221)" fill="#f7f7f7"/>
          <path id="Path_23353" data-name="Path 23353" d="M644.783,358.737a1.176,1.176,0,0,1,.337.842,1.252,1.252,0,0,1-.337.842c-.505.505-1.516.337-1.726.968-.168-.589-.505-2.021.084-2.652a1.175,1.175,0,0,1,.842-.337A1.053,1.053,0,0,1,644.783,358.737Z" transform="translate(-640.365 -358.4)" fill="#f7f7f7"/>
        </g>
        <path id="Path_23354" data-name="Path 23354" d="M544.263,380.061a5.975,5.975,0,0,1-1.179,1.768c-2.1,2.105-5.684.674-5.684-2.821a3.32,3.32,0,0,1,3.536-3.41,1.693,1.693,0,0,1,1.726,2.273,1.881,1.881,0,0,0-1.516-.589,1.937,1.937,0,1,0-.042,3.873c1.474,0,1.894-1.305,1.894-2.61v-2.9h1.642" transform="translate(-440.903 -368.357)" fill="#f7f7f7"/>
        <path id="Path_23355" data-name="Path 23355" d="M550.9,380.089V375.5h1.768a33.549,33.549,0,0,0,.126,4.673,1.108,1.108,0,0,0,1.095.884h1.979V382.7h-2.316a2.622,2.622,0,0,1-1.979-.758A2.372,2.372,0,0,1,550.9,380.089Z" transform="translate(-448.719 -368.301)" fill="#f7f7f7"/>
        <g id="Group_48687" data-name="Group 48687" transform="translate(97.932 2.937)">
          <path id="Path_23356" data-name="Path 23356" d="M550.383,365.681a1.176,1.176,0,0,1,.337.842,1.252,1.252,0,0,1-.337.842c-.505.505-1.516.337-1.726.968-.168-.589-.505-2.021.084-2.61a1.176,1.176,0,0,1,.842-.337A.884.884,0,0,1,550.383,365.681Z" transform="translate(-545.208 -365.375)" fill="#f7f7f7"/>
          <path id="Path_23357" data-name="Path 23357" d="M542.783,365.681a1.176,1.176,0,0,1,.337.842,1.252,1.252,0,0,1-.337.842c-.505.505-1.516.337-1.726.968-.168-.589-.505-2.021.084-2.61a1.176,1.176,0,0,1,.842-.337A.884.884,0,0,1,542.783,365.681Z" transform="translate(-540.808 -365.375)" fill="#f7f7f7"/>
        </g>
        <path id="Path_23358" data-name="Path 23358" d="M568.084,373.779v1.642h-2.442a6.347,6.347,0,0,1-1.895-.295c-1.389-.463-2.147-1.137-2.147-2.568a2.827,2.827,0,0,1,1.726-2.863,7.108,7.108,0,0,1,2.568-.295h5.894c.042,1.095-.463,1.642-1.474,1.642h-4.884c-.674,0-2.021.295-2.021,1.347s1.432,1.347,2.105,1.347h2.568Z" transform="translate(-454.914 -364.769)" fill="#f7f7f7"/>
        <path id="Path_23359" data-name="Path 23359" d="M560.2,383.647h7.284c1.558,0,1.642-.632,1.642-.884,0-.295.084-1.221-2.063-1.221h-1.221c-.968,0-1.474-.589-1.431-1.642h2.231a7.105,7.105,0,0,1,2.568.295,2.652,2.652,0,0,1,1.726,2.863c-.042.716-.337,2.231-1.852,2.231H560.2" transform="translate(-454.104 -370.848)" fill="#f7f7f7"/>
        <g id="Group_48688" data-name="Group 48688" transform="translate(51.069 6.989)">
          <path id="Path_23360" data-name="Path 23360" d="M438,380.768h1.305a1.479,1.479,0,0,0,.758-.253c.632-.421.589-1.305.589-1.979v-2.063c0-.968.716-1.474,1.81-1.474v3.073a7.107,7.107,0,0,1-.295,2.568,2.862,2.862,0,0,1-2.863,1.726H438" transform="translate(-434.421 -375)" fill="#f7f7f7"/>
          <path id="Path_23361" data-name="Path 23361" d="M433.121,385.128h-.463a2.827,2.827,0,0,1-2.863-1.726,5.572,5.572,0,0,1-.295-2.316V379.7c1.052-.042,1.81.463,1.81,1.474v.126c0,.674-.042,1.558.589,1.979a1.624,1.624,0,0,0,.758.253h.463" transform="translate(-429.5 -377.718)" fill="#f7f7f7"/>
        </g>
        <path id="Path_23362" data-name="Path 23362" d="M438.683,371.979a1.176,1.176,0,0,1,.337.842,1.078,1.078,0,0,1-.337.8c-.505.505-1.516.337-1.726.968-.168-.589-.505-2.021.084-2.652a1.175,1.175,0,0,1,.842-.337A1.565,1.565,0,0,1,438.683,371.979Z" transform="translate(-382.604 -366.043)" fill="#f7f7f7"/>
        <g id="Group_48689" data-name="Group 48689" transform="translate(74.688 4.505)">
          <path id="Path_23363" data-name="Path 23363" d="M486.989,381h3.789a1.852,1.852,0,0,0,2.063-2.021V375.4h1.81v3.663a3.3,3.3,0,0,1-3.663,3.579H485.6" transform="translate(-485.6 -372.748)" fill="#f7f7f7"/>
          <path id="Path_23364" data-name="Path 23364" d="M502.9,372.637v-2.063c0-1.01.716-1.474,1.81-1.474v3.073" transform="translate(-495.616 -369.1)" fill="#f7f7f7"/>
        </g>
        <path id="Path_23365" data-name="Path 23365" d="M598.3,378.745v-2.063A1.649,1.649,0,0,1,600.11,375v3.284" transform="translate(-476.163 -368.009)" fill="#f7f7f7"/>
        <path id="Path_23366" data-name="Path 23366" d="M627.7,378.073v-1.6c0-.968.758-1.474,1.81-1.474v3.284" transform="translate(-493.185 -368.011)" fill="#f7f7f7"/>
        <g id="Group_48690" data-name="Group 48690" transform="translate(38.397 4.631)">
          <path id="Path_23367" data-name="Path 23367" d="M399.4,381h5.768a1.852,1.852,0,0,0,2.063-2.021V375.4h1.81v3.663a3.3,3.3,0,0,1-3.663,3.579h-5.936" transform="translate(-399.4 -372.874)" fill="#f7f7f7"/>
          <path id="Path_23368" data-name="Path 23368" d="M417.9,372.937v-2.063c0-.968.716-1.474,1.81-1.474v3.073" transform="translate(-410.111 -369.4)" fill="#f7f7f7"/>
        </g>
        <g id="Group_48691" data-name="Group 48691" transform="translate(29.808 6.947)">
          <path id="Path_23369" data-name="Path 23369" d="M383.336,379.4v-1.347a1.453,1.453,0,0,0-.21-.758c-.421-.632-1.305-.589-1.979-.589h-.674c-1.01,0-1.474-.716-1.474-1.81h1.642a7.106,7.106,0,0,1,2.568.295,2.842,2.842,0,0,1,1.895,2.737v1.305" transform="translate(-379 -374.9)" fill="#f7f7f7"/>
        </g>
        <path id="Path_23370" data-name="Path 23370" d="M351,382.641V375.4h1.81v7.241Z" transform="translate(-332.981 -368.243)" fill="#f7f7f7"/>
        <path id="Path_23371" data-name="Path 23371" d="M351,372.937v-2.063c0-.968.716-1.474,1.81-1.474v3.073" transform="translate(-332.981 -364.769)" fill="#f7f7f7"/>
        <g id="Group_48692" data-name="Group 48692" transform="translate(10.525 6.989)">
          <path id="Path_23372" data-name="Path 23372" d="M338.084,379.463v-1.305a1.455,1.455,0,0,0-.21-.758c-.421-.631-1.305-.589-1.979-.589h-1.221c-.968,0-1.474-.716-1.474-1.81h2.231a7.107,7.107,0,0,1,2.568.295,2.967,2.967,0,0,1,1.852,2.863v1.305" transform="translate(-333.2 -375)" fill="#f7f7f7"/>
          <path id="Path_23373" data-name="Path 23373" d="M336.942,386.037h1.095c.674,0,1.558.042,1.979-.589a1.575,1.575,0,0,0,.211-.758v-.463l1.768-.126v.463a2.929,2.929,0,0,1-1.852,2.863,7.11,7.11,0,0,1-2.568.295H336.9" transform="translate(-335.342 -380.269)" fill="#f7f7f7"/>
        </g>
        <path id="Path_23374" data-name="Path 23374" d="M338.183,394.079a1.175,1.175,0,0,1,.337.842,1.077,1.077,0,0,1-.337.8c-.505.505-1.516.337-1.726.968-.168-.59-.505-2.021.084-2.652a1.175,1.175,0,0,1,.842-.337A1.291,1.291,0,0,1,338.183,394.079Z" transform="translate(-324.416 -378.838)" fill="#f7f7f7"/>
        <g id="Group_48693" data-name="Group 48693" transform="translate(0 7.031)">
          <path id="Path_23375" data-name="Path 23375" d="M316.7,380.826h1.305a1.455,1.455,0,0,0,.758-.21c.632-.421.589-1.305.589-1.979v-2.063c0-.968.716-1.474,1.81-1.474v3.073a7.108,7.108,0,0,1-.295,2.568,2.805,2.805,0,0,1-2.863,1.726H316.7" transform="translate(-313.121 -375.1)" fill="#f7f7f7"/>
          <path id="Path_23376" data-name="Path 23376" d="M311.821,385.186h-.463a2.827,2.827,0,0,1-2.863-1.726,5.463,5.463,0,0,1-.295-2.273V379.8c1.053-.042,1.81.463,1.81,1.474v.126c0,.674-.042,1.558.589,1.979a1.222,1.222,0,0,0,.758.21h.463" transform="translate(-308.2 -377.818)" fill="#f7f7f7"/>
          <path id="Path_23377" data-name="Path 23377" d="M324.868,382.921c0,.674-.042,1.558.589,1.979a1.623,1.623,0,0,0,.758.253H329.5v1.642h-3.242a2.827,2.827,0,0,1-2.863-1.726,7.108,7.108,0,0,1-.295-2.568" transform="translate(-316.827 -379.385)" fill="#f7f7f7"/>
        </g>
        <path id="Path_23378" data-name="Path 23378" d="M317.383,372.337a1.175,1.175,0,0,1,.337.842,1.251,1.251,0,0,1-.337.842c-.505.505-1.516.337-1.726.968-.168-.589-.505-2.021.084-2.652a1.176,1.176,0,0,1,.842-.337A1.052,1.052,0,0,1,317.383,372.337Z" transform="translate(-312.373 -366.274)" fill="#f7f7f7"/>
        <path id="Path_23379" data-name="Path 23379" d="M460.86,382.411H454.8a3.7,3.7,0,0,1-1.937-6.9,4.023,4.023,0,0,1,2.526-.463c2.316.337,2.442,2.358,1.516,2.779-.421-1.558-3.663-1.726-4.126.463a1.946,1.946,0,0,0,1.979,2.484h5.684" transform="translate(-390.887 -368.013)" fill="#f7f7f7"/>
        <path id="Path_23380" data-name="Path 23380" d="M455.739,382.589V378.8l1.81.168v4.758a3.3,3.3,0,0,1-3.663,3.579c-1.81,0-3.2-.968-2.652-2.863a2.72,2.72,0,0,0,2.442,1.221,1.852,1.852,0,0,0,2.063-2.021Z" transform="translate(-390.944 -370.211)" fill="#f7f7f7"/>
        <g id="Group_48694" data-name="Group 48694" transform="translate(21.309 6.99)">
          <path id="Path_23381" data-name="Path 23381" d="M365.165,382.411H362.6a3.7,3.7,0,0,1-1.937-6.9,4.022,4.022,0,0,1,2.526-.463c2.316.337,2.442,2.358,1.516,2.821-.421-1.558-3.663-1.726-4.126.463a1.946,1.946,0,0,0,1.979,2.484h2.231" transform="translate(-358.814 -375.003)" fill="#f7f7f7"/>
          <path id="Path_23382" data-name="Path 23382" d="M363.439,382.589V378.8l1.81.168v4.758a3.3,3.3,0,0,1-3.663,3.579c-1.81,0-3.2-.968-2.652-2.863a2.72,2.72,0,0,0,2.442,1.221,1.852,1.852,0,0,0,2.063-2.021Z" transform="translate(-358.813 -377.201)" fill="#f7f7f7"/>
        </g>
        <g id="Group_48695" data-name="Group 48695" transform="translate(31.913 4.631)">
          <path id="Path_23383" data-name="Path 23383" d="M385.853,381h4.8a1.852,1.852,0,0,0,2.063-2.021V375.4h1.81v3.663a3.3,3.3,0,0,1-3.663,3.579H384" transform="translate(-384 -372.874)" fill="#f7f7f7"/>
          <path id="Path_23384" data-name="Path 23384" d="M404.7,372.937v-2.063c0-.968.716-1.474,1.81-1.474v3.073" transform="translate(-395.985 -369.4)" fill="#f7f7f7"/>
        </g>
        <path id="Path_23385" data-name="Path 23385" d="M384.159,384.1v.463a2.965,2.965,0,0,1-1.895,2.863,7.26,7.26,0,0,1-2.568.295h-2.4c-.042-1.053.463-1.642,1.474-1.642h1.389c.674,0,1.558.042,1.979-.589a1.271,1.271,0,0,0,.21-.8v-.463" transform="translate(-348.204 -373.28)" fill="#f7f7f7"/>
        <path id="Path_23386" data-name="Path 23386" d="M638.3,378.073v-1.6c0-.968.758-1.474,1.81-1.474v3.284" transform="translate(-499.322 -368.011)" fill="#f7f7f7"/>
        <g id="Group_48696" data-name="Group 48696" transform="translate(85.172 6.989)">
          <path id="Path_23387" data-name="Path 23387" d="M515.426,379.463v-1.305a1.578,1.578,0,0,0-.21-.758c-.421-.631-1.305-.589-1.979-.589h-1.263c-.968,0-1.474-.716-1.474-1.81h2.231a7.106,7.106,0,0,1,2.568.295,2.861,2.861,0,0,1,1.726,2.863v1.305" transform="translate(-510.5 -375)" fill="#f7f7f7"/>
          <path id="Path_23388" data-name="Path 23388" d="M517.123,384v.463a2.827,2.827,0,0,1-1.726,2.863,7.11,7.11,0,0,1-2.568.295H510.6c-.042-1.053.463-1.684,1.474-1.642h1.221c.674,0,1.558.042,1.979-.547a1.576,1.576,0,0,0,.21-.758v-.463" transform="translate(-510.555 -380.211)" fill="#f7f7f7"/>
        </g>
        <g id="Group_48697" data-name="Group 48697" transform="translate(69.131 9.683)">
          <path id="Path_23389" data-name="Path 23389" d="M476.1,388.389a3.5,3.5,0,1,1,3.7-3.495A3.616,3.616,0,0,1,476.1,388.389Zm0-5.347a1.931,1.931,0,0,0-2.021,1.81,1.9,1.9,0,0,0,2.021,1.81,1.821,1.821,0,1,0,0-3.621Z" transform="translate(-472.4 -381.4)" fill="#f7f7f7"/>
        </g>
      </g>
      <g id="Group_48699" data-name="Group 48699" transform="translate(82.098 54.534)">
        <path id="Path_23390" data-name="Path 23390" d="M252.389,386.879A1.415,1.415,0,0,1,251,385.616a1.571,1.571,0,0,1,.337-1.053c.337.337.589.547.589.547a.808.808,0,0,0-.126.505.553.553,0,0,0,.547.421h2.484c.21,0,.337-.126.337-.379V384.1h.842v1.516a1.119,1.119,0,0,1-1.137,1.263Zm1.642.337v.716h-.842v-.716Z" transform="translate(-251 -381.827)" fill="#fbfbfb"/>
        <path id="Path_23391" data-name="Path 23391" d="M264.4,389.658V388.9h.716v.758Z" transform="translate(-258.758 -384.606)" fill="#fbfbfb"/>
        <path id="Path_23392" data-name="Path 23392" d="M271.252,383.6a1.435,1.435,0,0,1,1.474,1.474,1.5,1.5,0,0,1-1.474,1.558,1.425,1.425,0,0,1-1.431-1.263.626.626,0,0,1-.295.042h-.505a.354.354,0,0,0-.379.379v1.852H267.8v-1.768a1.119,1.119,0,0,1,1.137-1.263h.674a.282.282,0,0,0,.295-.168A1.433,1.433,0,0,1,271.252,383.6Zm.589,1.474c0-.421-.168-.8-.631-.8s-.589.379-.589.8c0,.505.168.842.589.842C271.715,385.958,271.842,385.579,271.842,385.073Z" transform="translate(-260.727 -381.537)" fill="#fbfbfb"/>
        <path id="Path_23393" data-name="Path 23393" d="M280.8,389.658V388.9h.716v.758Z" transform="translate(-268.254 -384.606)" fill="#fbfbfb"/>
        <path id="Path_23394" data-name="Path 23394" d="M287.5,381.184h.842v1.474c0,.421.253.632.505.632.421,0,.505-.295.505-.632v-1.516h.842v1.474c0,.421.253.631.505.631.421,0,.505-.295.505-.631v-1.684h.842v1.684c0,.631-.21,1.221-.968,1.221a1.057,1.057,0,0,0-1.852,0,1.042,1.042,0,0,1-.968-.463,1.948,1.948,0,0,1-1.937,1.431A2.068,2.068,0,0,1,284.3,382.7a3.372,3.372,0,0,1,.126-.968h.884a2.59,2.59,0,0,0-.168.968,1.283,1.283,0,0,0,1.179,1.263,1.231,1.231,0,0,0,1.221-1.263v-1.516Zm2.063-1.474v.716h-.842v-.716Zm.589-1.01v.674h-.8V378.7Zm.632,1.01v.716h-.842v-.716Z" transform="translate(-270.28 -378.7)" fill="#fbfbfb"/>
      </g>
    </g>
    <g id="Group_48701" data-name="Group 48701" transform="translate(138.267 314.649)">
      <path id="Path_23395" data-name="Path 23395" d="M256.368,405.347c2.989,1.516,2.737,7.115-.547,8.126a24.3,24.3,0,0,1-4.421.21v-7.368a1.341,1.341,0,0,1,1.474-1.516h1.642A4.2,4.2,0,0,1,256.368,405.347Zm.042,5.557a3.552,3.552,0,0,0-.337-3.747,2.269,2.269,0,0,0-1.558-.632h-1.431v5.515C254.6,412.084,255.737,412.21,256.41,410.9Z" transform="translate(-251.4 -404.757)" fill="#f7f7f7"/>
      <path id="Path_23396" data-name="Path 23396" d="M272.871,412.552a2.472,2.472,0,0,0,1.895.337c1.6-.126.8-1.684-.547-1.6a1.984,1.984,0,0,0-1.852,1.979,1.953,1.953,0,0,0,1.431,2.063,2.117,2.117,0,0,0,1.894-.632l1.347.632a3.189,3.189,0,0,1-2.863,1.431c-3.368,0-4.252-3.915-2.442-5.852a3.489,3.489,0,0,1,2.568-1.01c3.116,0,3.789,3.537,1.137,4.21C273.629,414.573,272.366,413.815,272.871,412.552Z" transform="translate(-262.64 -407.71)" fill="#f7f7f7"/>
      <path id="Path_23397" data-name="Path 23397" d="M290,413.784h-1.6v-7.578c0-.8.632-1.305,1.6-1.305Z" transform="translate(-272.822 -404.815)" fill="#f7f7f7"/>
      <path id="Path_23398" data-name="Path 23398" d="M298.726,409.993a2.335,2.335,0,0,1,1.81.674,1.6,1.6,0,0,1,.379.547c.126-.716,1.095-1.179,1.895-1.221a2.426,2.426,0,0,1,1.853.674,2.365,2.365,0,0,1,.547,1.726v4.336h-1.642c0-.842,0-3.789-.084-4.421a.887.887,0,0,0-.926-.842c-.589,0-1.053.379-1.01.884a.841.841,0,0,1-.421-.337v4.715h-1.6a37.8,37.8,0,0,0-.084-4.421.973.973,0,0,0-.968-.8.821.821,0,0,0-.926.842.826.826,0,0,1-.505-.547v4.926H295.4V410.2h1.642v.758C297.21,410.33,298.137,410.035,298.726,409.993Z" transform="translate(-276.875 -407.76)" fill="#f7f7f7"/>
      <path id="Path_23399" data-name="Path 23399" d="M327.53,415.292a3.459,3.459,0,0,1-6.315-2.694c.463-1.474,2.9-1.347,3.073.084a1.041,1.041,0,0,0-1.558.968,1.792,1.792,0,1,0,3.579-.042,1.771,1.771,0,0,0-2.189-1.852,1.836,1.836,0,0,0-2.274-.295A3.416,3.416,0,0,1,324.5,410.2,3.373,3.373,0,0,1,327.53,415.292Z" transform="translate(-291.744 -407.881)" fill="#f7f7f7"/>
      <path id="Path_23400" data-name="Path 23400" d="M343.252,409.993a2.335,2.335,0,0,1,1.81.674,2.365,2.365,0,0,1,.547,1.726v4.336h-1.6a37.8,37.8,0,0,0-.084-4.421.986.986,0,0,0-1.01-.8.821.821,0,0,0-.926.842.991.991,0,0,1-.547-.547v4.926H339.8v-6.568h1.642v.758A2.4,2.4,0,0,1,343.252,409.993Z" transform="translate(-302.582 -407.76)" fill="#f7f7f7"/>
      <path id="Path_23401" data-name="Path 23401" d="M367.526,404.9c4.126,0,3.536,6.189,0,6.189-1.768,0-1.81-1.347-1.347-1.979.168.337,1.053.421,1.432.337,1.347-.253,1.6-2.9-.295-2.9h-1.432v7.2H364.2v-7.284c0-.926.379-1.558,1.389-1.558Z" transform="translate(-316.709 -404.815)" fill="#f7f7f7"/>
      <path id="Path_23402" data-name="Path 23402" d="M388.33,415.292a3.459,3.459,0,0,1-6.315-2.694c.463-1.474,2.905-1.347,3.073.084a1.041,1.041,0,0,0-1.558.968,1.792,1.792,0,1,0,3.579-.042,1.771,1.771,0,0,0-2.189-1.852,1.836,1.836,0,0,0-2.273-.295A3.416,3.416,0,0,1,385.3,410.2,3.373,3.373,0,0,1,388.33,415.292Z" transform="translate(-326.946 -407.881)" fill="#f7f7f7"/>
      <path id="Path_23403" data-name="Path 23403" d="M403.642,413.5c0,.589-.042,1.431.547,1.81a1.368,1.368,0,0,0,1.389,0c.547-.379.505-1.179.505-1.768v-1.895c0-.884.674-1.347,1.642-1.347v2.779a7.553,7.553,0,0,1-.253,2.358,2.578,2.578,0,0,1-2.61,1.6,2.489,2.489,0,0,1-2.652-1.81,6.9,6.9,0,0,1-.211-1.895v-2.989h1.642Z" transform="translate(-338.595 -407.941)" fill="#f7f7f7"/>
      <path id="Path_23404" data-name="Path 23404" d="M421.4,413.784h-1.6v-7.578c0-.8.632-1.305,1.6-1.305Z" transform="translate(-348.901 -404.815)" fill="#f7f7f7"/>
      <path id="Path_23405" data-name="Path 23405" d="M429.416,404.9v2.358h1.474c0,.674-.211,1.347-1.095,1.347h-.337v3.579c0,.547.968.421,1.221.042.632,1.684-2.779,2.316-2.779.168V408.6h-.8v-1.347h.8v-1.052C427.816,405.279,428.573,404.9,429.416,404.9Z" transform="translate(-353.127 -404.815)" fill="#f7f7f7"/>
      <path id="Path_23406" data-name="Path 23406" d="M441.132,410.122v.842a1.522,1.522,0,0,1,1.305-.968c1.389-.084,1.768,1.474,1.053,1.979-.295-.842-1.979-.505-2.105.926-.042.421-.042.842-.042,1.137v2.652H439.7v-6.568Z" transform="translate(-360.423 -407.763)" fill="#f7f7f7"/>
      <path id="Path_23407" data-name="Path 23407" d="M452.668,416.742a2.4,2.4,0,0,0,2.231,1.095c1.221-.042,1.853-.589,1.853-1.852-.211.632-1.221.926-1.853.968a2.186,2.186,0,0,1-2.4-2.358V410.3h1.6c0,.842-.042,3.747.084,4.379a.973.973,0,0,0,.968.8.992.992,0,0,0,1.052-.884.54.54,0,0,1,.421.463v-4.715h1.642v5.768a2.992,2.992,0,0,1-3.326,3.242C453.426,419.352,452.163,418.468,452.668,416.742Z" transform="translate(-367.834 -407.941)" fill="#f7f7f7"/>
      <path id="Path_23408" data-name="Path 23408" d="M482.878,406.34a2.846,2.846,0,0,0-2.231,2.863,2.918,2.918,0,0,0,4.168,2.737,4.594,4.594,0,0,0,1.263-.968l1.095,1.179a4.577,4.577,0,0,1-3.663,1.684c-4.084,0-5.389-4.294-3.916-6.9a4.4,4.4,0,0,1,4.126-2.232c1.768-.042,4.379,1.053,2.61,3.158C485.909,406.593,484.183,406.046,482.878,406.34Z" transform="translate(-383.181 -404.697)" fill="#f7f7f7"/>
      <path id="Path_23409" data-name="Path 23409" d="M505.83,415.292a3.459,3.459,0,0,1-6.315-2.694c.463-1.474,2.9-1.347,3.073.084a1.041,1.041,0,0,0-1.558.968,1.792,1.792,0,1,0,3.578-.042,1.771,1.771,0,0,0-2.189-1.852,1.836,1.836,0,0,0-2.273-.295A3.416,3.416,0,0,1,502.8,410.2,3.373,3.373,0,0,1,505.83,415.292Z" transform="translate(-394.976 -407.881)" fill="#f7f7f7"/>
      <path id="Path_23410" data-name="Path 23410" d="M520.41,409.993a2.335,2.335,0,0,1,1.81.674,1.6,1.6,0,0,1,.379.547c.126-.716,1.095-1.179,1.895-1.221a2.426,2.426,0,0,1,1.852.674,2.374,2.374,0,0,1,.589,1.726v4.336h-1.642c0-.842,0-3.789-.084-4.421a.887.887,0,0,0-.926-.842c-.59,0-1.053.379-1.01.884a.841.841,0,0,1-.421-.337v4.715h-1.6c0-.842.042-3.789-.084-4.421a.973.973,0,0,0-.968-.8.821.821,0,0,0-.926.842.826.826,0,0,1-.505-.547v4.926H517V410.2h1.642v.758A2.181,2.181,0,0,1,520.41,409.993Z" transform="translate(-405.178 -407.76)" fill="#f7f7f7"/>
      <path id="Path_23411" data-name="Path 23411" d="M543.884,410.89c1.895-1.895,5.094-.589,5.094,2.568a3.269,3.269,0,0,1-3.157,3.41,1.524,1.524,0,0,1-1.6-2.021,1.64,1.64,0,0,0,1.347.547c2.315,0,2.358-3.831,0-3.831-1.347,0-1.726,1.347-1.726,2.484v5.178H542.2v-7.7c0-.884.758-1.347,1.642-1.305v.674Z" transform="translate(-419.768 -407.773)" fill="#f7f7f7"/>
      <path id="Path_23412" data-name="Path 23412" d="M564.036,416.074c-1.894,1.895-5.136.589-5.136-2.568a3.25,3.25,0,0,1,3.2-3.41,1.519,1.519,0,0,1,1.558,2.063,1.639,1.639,0,0,0-1.347-.547c-2.358,0-2.4,3.873,0,3.873,1.347,0,1.726-1.347,1.726-2.526v-2.695h1.642v6.526h-1.642Z" transform="translate(-429.437 -407.821)" fill="#f7f7f7"/>
      <path id="Path_23413" data-name="Path 23413" d="M580.21,409.993a2.335,2.335,0,0,1,1.81.674,2.375,2.375,0,0,1,.59,1.726v4.336h-1.6a37.791,37.791,0,0,0-.084-4.421.986.986,0,0,0-1.01-.8.821.821,0,0,0-.926.842.991.991,0,0,1-.547-.547v4.926H576.8v-6.568h1.642v.758A2.253,2.253,0,0,1,580.21,409.993Z" transform="translate(-439.801 -407.76)" fill="#f7f7f7"/>
      <path id="Path_23414" data-name="Path 23414" d="M591.968,416.742a2.406,2.406,0,0,0,2.232,1.095c1.221-.042,1.852-.589,1.852-1.852-.211.632-1.221.926-1.852.968a2.186,2.186,0,0,1-2.4-2.358V410.3h1.6a37.039,37.039,0,0,0,.084,4.379.973.973,0,0,0,.968.8.992.992,0,0,0,1.052-.884.539.539,0,0,1,.421.463v-4.715h1.642v5.768a2.992,2.992,0,0,1-3.326,3.242C592.726,419.352,591.463,418.468,591.968,416.742Z" transform="translate(-448.486 -407.941)" fill="#f7f7f7"/>
      <path id="Path_23415" data-name="Path 23415" d="M613.3,414.742a.746.746,0,0,1,.716-.842h1.01a1.5,1.5,0,0,1,1.179.547,1.2,1.2,0,0,1-.253,1.768,1.416,1.416,0,0,1,.084,2.61,2.1,2.1,0,0,1-.968.168h-1.726v-4.252Zm.968,3.326a4.771,4.771,0,0,0,1.095-.042c.758-.211.589-1.053-.126-1.221-.21-.042-.674-.084-.842.126-.252-.547-.126-.926.632-1.053a.5.5,0,0,0,.421-.505.505.505,0,0,0-.463-.505,4.839,4.839,0,0,0-.758-.042v3.242Z" transform="translate(-460.934 -410.026)" fill="#f7f7f7"/>
      <path id="Path_23416" data-name="Path 23416" d="M624.126,423.868a.41.41,0,0,1,.168.379.458.458,0,0,1-.168.379.41.41,0,0,1-.379.168.514.514,0,0,1-.379-.168.628.628,0,0,1-.168-.379.41.41,0,0,1,.168-.379.457.457,0,0,1,.379-.168A1.492,1.492,0,0,1,624.126,423.868Z" transform="translate(-466.666 -415.7)" fill="#f7f7f7"/>
      <path id="Path_23417" data-name="Path 23417" d="M628.816,415.174c.379.463,1.474,1.137,1.81,1.81A1.435,1.435,0,0,1,629.195,419a2.249,2.249,0,0,1-1.894-1.221l.758-.547a1.8,1.8,0,0,0,.926.842c.589.168,1.095-.295.674-.842-.463-.589-1.81-1.263-1.81-2.231a1.358,1.358,0,0,1,1.389-1.305,1.612,1.612,0,0,1,1.137.379.655.655,0,0,1-.084,1.137C629.7,414.121,628.395,414.626,628.816,415.174Z" transform="translate(-469.04 -409.91)" fill="#f7f7f7"/>
      <path id="Path_23418" data-name="Path 23418" d="M637.626,423.868a.41.41,0,0,1,.168.379.457.457,0,0,1-.168.379.41.41,0,0,1-.379.168.514.514,0,0,1-.379-.168.628.628,0,0,1-.169-.379.41.41,0,0,1,.169-.379.457.457,0,0,1,.379-.168A.793.793,0,0,1,637.626,423.868Z" transform="translate(-474.482 -415.7)" fill="#f7f7f7"/>
      <path id="Path_23419" data-name="Path 23419" d="M643.085,414.726a1.626,1.626,0,0,0-1.263,1.642,1.647,1.647,0,0,0,2.4,1.558,2.5,2.5,0,0,0,.715-.547l.631.674a2.685,2.685,0,0,1-2.1.968,2.616,2.616,0,0,1-2.231-3.958,2.462,2.462,0,0,1,2.358-1.263c1.011,0,2.526.59,1.516,1.81A1.785,1.785,0,0,0,643.085,414.726Z" transform="translate(-476.91 -409.968)" fill="#f7f7f7"/>
    </g>
  </g>
</svg>
