<svg xmlns="http://www.w3.org/2000/svg" xmlns:xlink="http://www.w3.org/1999/xlink" width="103.72" height="111.333" viewBox="0 0 103.72 111.333"><defs><style>.a{fill:url(#a);}.b,.c{fill:#fff;}.b{fill-rule:evenodd;}.c{font-size:8px;font-family:Poppins-Bold, Poppins;font-weight:700;}</style><linearGradient id="a" x1="0.073" y1="0.961" x2="0.946" y2="0.056" gradientUnits="objectBoundingBox"><stop offset="0" stop-color="#b6130c"/><stop offset="1" stop-color="#8d1c3d"/></linearGradient></defs><g transform="translate(-136 -350)"><rect class="a" width="103.72" height="111.333" rx="20" transform="translate(136 350)"/><g transform="translate(0 0.827)"><g transform="translate(171 381.173)"><path class="b" d="M538.07,555.609l2.8,2.9,1.23-1.192L529.7,544.5c-1.17,1.133-1.909,2.5,2.19,6.729l5.178,5.347,1-.971Z" transform="translate(-524.013 -539.055)"/><path class="b" d="M591.359,526.277a.53.53,0,0,1,.312.678l-1.9,5.148a.528.528,0,0,0,.99.366l1.94-5.248a.528.528,0,0,1,.99.366l-1.94,5.248a.528.528,0,1,0,.99.366l1.9-5.148a.528.528,0,0,1,.99.366l-1.822,4.927c-.39,1.054-1.072,1.924-1.971,1.917a.808.808,0,0,0-.766.529l-3.249,8.306-1.387-.5,2.912-8.45a.809.809,0,0,0-.235-.9,2.415,2.415,0,0,1-.287-2.646l1.856-5.02a.529.529,0,0,1,.678-.312Z" transform="translate(-569.926 -524.515)"/><path class="b" d="M581.417,600.177a2,2,0,1,1-.045,2.831,2,2,0,0,1,.045-2.831Z" transform="translate(-565.443 -582.939)"/><path class="b" d="M540.4,597.747c-.019-.13-.035-.259-.048-.388a9.862,9.862,0,0,0,19.423-2.846c.024.128.046.256.065.386a9.823,9.823,0,1,1-19.439,2.849Z" transform="translate(-533.229 -578.878)"/><path class="b" d="M541.145,569.753a16.563,16.563,0,0,0-5.961-20.973,15.171,15.171,0,1,1-23.166,5.385c.068-.144.139-.287.211-.428a16.739,16.739,0,0,0-1.028,1.86,16.562,16.562,0,0,0,5.864,20.909h18.219S539.8,572.6,541.145,569.753Z" transform="translate(-508.747 -542.461)"/><path class="b" d="M505.959,529.771a.581.581,0,1,1-.581.581.581.581,0,0,1,.581-.581Zm14.678-1.406a.675.675,0,1,1-.675.675.675.675,0,0,1,.675-.675Zm-.45,1.65a.412.412,0,1,1-.412.412.413.413,0,0,1,.412-.412Zm-1.537-12.26a.75.75,0,1,1-.75.75.75.75,0,0,1,.75-.75Zm-.843,1.65a.319.319,0,1,1-.319.319.319.319,0,0,1,.319-.319Zm5.23.375a1.2,1.2,0,1,1-1.2,1.2,1.2,1.2,0,0,1,1.2-1.2Zm1.406-1.2a.506.506,0,1,1-.506.506.506.506,0,0,1,.506-.506Zm11.1,2.175a1.519,1.519,0,1,1-1.518,1.519,1.519,1.519,0,0,1,1.518-1.519Zm-2.437,2.325a.544.544,0,1,1-.544.543.544.544,0,0,1,.544-.543Zm-.731,5.474a1.012,1.012,0,1,1-1.012,1.012,1.013,1.013,0,0,1,1.012-1.012Zm-.825-1.912a.562.562,0,1,1-.563.562.562.562,0,0,1,.563-.562Zm-21.8,3.581a.469.469,0,1,1-.469.469.469.469,0,0,1,.469-.469Zm1.012-1.875a.544.544,0,1,1-.544.544.544.544,0,0,1,.544-.544Zm4.931-4.837a.937.937,0,1,1-.937.937.937.937,0,0,1,.937-.937Zm-1.856.075a.356.356,0,1,1-.356.356.356.356,0,0,1,.356-.356Zm-7.461,4.949a.356.356,0,1,1-.356.356.356.356,0,0,1,.356-.356Z" transform="translate(-505.378 -517.754)"/></g><text class="c" transform="translate(165 425.674)"><tspan x="0" y="0">Line &amp; Dine</tspan></text></g></g></svg>